<svg width="570" height="470" viewBox="0 0 570 470" fill="none" xmlns="http://www.w3.org/2000/svg">
<path d="M410.688 319.792C424.031 319.792 434.847 308.968 434.847 295.617C434.847 282.265 424.031 271.441 410.688 271.441C397.346 271.441 386.529 282.265 386.529 295.617C386.529 308.968 397.346 319.792 410.688 319.792Z" fill="#EBF4FF"/>
<path d="M442.171 322.584C450.32 322.584 456.926 315.973 456.926 307.818C456.926 299.663 450.32 293.052 442.171 293.052C434.021 293.052 427.415 299.663 427.415 307.818C427.415 315.973 434.021 322.584 442.171 322.584Z" fill="#EBF4FF"/>
<path d="M377.712 318.555C385.862 318.555 392.468 311.944 392.468 303.789C392.468 295.634 385.862 289.023 377.712 289.023C369.563 289.023 362.957 295.634 362.957 303.789C362.957 311.944 369.563 318.555 377.712 318.555Z" fill="#EBF4FF"/>
<path d="M359.344 322.584C363.419 322.584 366.722 319.278 366.722 315.201C366.722 311.123 363.419 307.818 359.344 307.818C355.27 307.818 351.967 311.123 351.967 315.201C351.967 319.278 355.27 322.584 359.344 322.584Z" fill="#EBF4FF"/>
<path d="M343.431 322.584H442.171C442.173 314.433 435.574 307.823 427.43 307.818H376.934C374.205 307.816 371.53 308.573 369.206 310.003L360.759 315.201L343.431 322.584Z" fill="#EBF4FF"/>
<path d="M281.471 102.33C281.471 102.33 289.204 100.071 292.723 101.136C296.996 102.438 304.728 104.731 309.41 111.034C314.092 117.337 319.513 118.432 324.072 118.2C328.631 117.968 338.364 116.721 343.293 122.762C347.477 127.891 343.416 131.269 343.293 131.269C343.17 131.269 354.998 131.393 360.665 138.667C367.112 146.943 366.131 155.746 364.238 162.216C361.281 172.327 350.808 179.724 337.132 178.368C325.728 177.239 321.943 170.724 321.943 170.724C321.943 170.724 319.232 175.656 310.238 175.286C301.244 174.916 297.794 170.6 296.069 168.504C294.344 166.408 291.86 160.367 292.723 154.325C293.585 148.284 285.03 148.161 285.03 148.161L281.471 102.33Z" fill="#D8E9FE"/>
<path d="M281.471 102.33C281.471 102.33 277.834 100.14 274.877 102.33C271.92 104.519 268.101 108.8 263.419 115.103C258.737 121.406 253.316 122.501 248.757 122.269C244.198 122.037 234.465 120.789 229.536 126.831C225.352 131.96 229.413 135.338 229.536 135.338C229.659 135.338 217.831 135.461 212.164 142.736C205.717 151.011 206.698 159.815 208.591 166.285C211.548 176.395 222.02 183.793 235.697 182.437C247.101 181.307 250.975 171.464 250.975 171.464C250.975 171.464 253.685 176.395 262.679 176.025C271.674 175.656 275.124 171.34 276.848 169.244C278.573 167.148 280.298 160.614 279.436 154.572C278.573 148.531 285.03 148.161 285.03 148.161L283.058 122.624L281.471 102.33Z" fill="#D8E9FE"/>
<path d="M287.321 272.812C286.884 280.296 287.09 287.803 287.937 295.252C288.307 299.074 289.578 307.502 287.814 326.075C286.163 343.425 287.321 346.049 287.814 349.625C287.998 351.244 288.286 352.851 288.677 354.433H270.072C270.072 354.433 269.826 353.2 270.688 352.584C271.55 351.967 273.399 351.721 274.754 351.104C276.109 350.488 277.711 347.775 277.834 346.789C277.957 345.802 276.848 333.226 274.384 317.198C271.92 301.17 271.427 294.388 271.674 290.073C271.831 287.341 270.456 280.067 268.924 272.777L287.321 272.812Z" fill="#4C97FC"/>
<path d="M315.758 280.126C315.945 282.291 317.616 284.185 317.843 286.458C318.168 289.625 318.538 292.973 318.986 296.726C320.957 313.248 324.9 345.305 325.146 346.538C325.393 347.77 331.8 350.73 333.155 351.223C334.51 351.716 339.562 352.702 340.178 353.195C340.794 353.689 341.533 354.428 341.533 354.428H314.797C314.797 354.428 314.304 354.182 315.043 349.99C315.783 345.798 314.339 341.803 309.006 326.44C303.624 310.95 302.23 303.754 301.983 292.164C301.947 291.146 301.86 290.131 301.722 289.122C301.505 287.405 301.84 285.216 301.392 282.912L315.758 280.126Z" fill="#4C97FC"/>
<path d="M325.146 346.542C325.393 347.775 331.8 350.735 333.155 351.228C334.51 351.721 339.562 352.707 340.178 353.2C340.794 353.694 341.533 354.433 341.533 354.433H314.797C314.797 354.433 314.304 354.187 315.043 349.995L325.146 346.542Z" fill="#136EFB"/>
<path d="M287.814 349.625C287.998 351.245 288.286 352.851 288.677 354.433H270.072C270.072 354.433 269.826 353.2 270.688 352.584C271.55 351.967 273.399 351.721 274.754 351.104C276.109 350.488 277.711 347.775 277.834 346.789H280.747C281.855 346.789 282.946 347.06 283.926 347.578L287.814 349.625Z" fill="#136EFB"/>
<path d="M301.786 290.438C300.017 275.46 288.307 231.099 288.307 231.099C288.307 231.099 287.937 262.046 287.321 273.636C287.03 279.095 287.07 283.539 287.228 287.114L271.072 284.816C270.003 278.148 267.78 268.309 266.376 261.799C264.404 252.675 262.054 231.345 262.803 220.619C263.705 207.712 267.297 196.848 268.879 194.396L304.713 193.075C305.053 194.95 305.548 196.795 306.192 198.588C306.192 198.588 314.077 232.208 315.314 252.306C316.266 267.836 316.793 276.516 317.867 287.287L301.786 290.438Z" fill="#D8E9FE"/>
<path d="M313.663 151.899C313.663 151.899 315.635 169.254 315.295 174.857C314.955 180.459 309.558 183.433 303.614 182.126C303.614 182.126 296.991 158.873 303.614 155.791C310.238 152.708 313.663 151.899 313.663 151.899Z" fill="#136EFB"/>
<path d="M267.485 139.688C271.757 136.931 279.682 135.585 279.682 135.585L296.577 135.299C300.447 135.957 304.064 137.662 307.035 140.231C311.263 143.865 312.17 147.564 312.988 149.537C313.806 151.51 314.304 156.032 314.304 156.032L302.806 158.661C302.806 158.661 303.299 180.361 303.955 187.102C304.61 193.844 306.192 197.765 306.192 197.765L268.899 193.573C268.899 193.573 272.763 187.768 272.926 186.723C273.088 185.677 273.502 183.537 272.926 178.526L266.869 159.144L267.485 139.688Z" fill="#91BFFD"/>
<path d="M279.692 135.555C279.692 135.555 271.767 136.902 267.494 139.658C263.222 142.415 256.815 148.501 252.217 153.596C247.618 158.69 234.967 177.761 234.967 177.761C234.967 177.761 233.159 181.046 233.982 182.531C234.805 184.015 244.987 193.05 255.011 198.475L265.03 203.9L269.303 199.299C270.489 199.607 271.697 199.826 272.916 199.955C273.901 199.955 274.557 198.475 274.557 198.475C275.055 198.569 275.569 198.512 276.035 198.312C276.528 197.982 276.696 196.177 276.696 196.177L275.626 194.451C276.064 194.363 276.481 194.196 276.858 193.957C277.267 193.627 276.119 190.668 275.38 190.012C274.641 189.356 271.274 188.611 270.698 188.779C270.121 188.947 265.853 194.944 265.853 194.944C265.853 194.944 262.236 193.38 257.721 188.695C253.207 184.01 249.259 180.065 248.85 179.655C248.85 179.655 261.827 164.199 265.114 160.831L279.692 135.555Z" fill="#4C97FC"/>
<path d="M262.216 164.017C263.443 162.626 264.463 161.496 265.114 160.831C266.464 159.445 268.5 157.566 270.427 155.84C273.888 152.74 276.35 148.68 277.499 144.176L279.692 135.555C279.692 135.555 271.767 136.902 267.494 139.658C263.222 142.415 256.815 148.501 252.217 153.596C252.005 153.827 251.783 154.089 251.541 154.38L262.216 164.017Z" fill="#91BFFD"/>
<path d="M280.914 126.091C280.914 126.091 281.9 133.242 279.682 135.585L287.987 149.764L294.591 135.215C294.591 135.215 291.387 134.475 291.757 126.091L280.914 126.091Z" fill="#136EFB"/>
<path d="M297.424 108.83C297.424 108.83 298.78 115.532 297.548 119.847C296.316 124.163 295.207 126.214 294.591 126.831C293.975 127.447 291.264 128.927 288.923 129.05C287.371 129.134 284.295 128.779 281.471 128.138C280.037 127.812 280.382 122.269 280.382 122.269L281.161 103.158C284.364 102.418 295.946 103.282 297.424 108.83Z" fill="#91BFFD"/>
<path d="M286.789 109.737C286.789 109.737 284.078 113.599 285.389 114.585C286.7 115.572 290.071 115.162 290.485 114.585C290.899 114.008 289.598 111.513 288.593 109.737C287.804 108.337 286.789 109.737 286.789 109.737Z" fill="#4C97FC"/>
<path d="M290.5 114.585C291.131 114.911 286.725 115.571 285.409 114.585C285.409 114.585 288.12 113.352 290.5 114.585Z" fill="#136EFB"/>
<path d="M304.778 113.431C304.778 113.431 301.983 111.291 298.942 110.635C295.902 109.979 290.076 107.143 286.479 105.047C282.881 102.951 282.122 102.379 281.181 103.153L280.402 102.823C280.402 102.823 285.567 100.115 290.584 100.771C295.601 101.427 299.455 103.075 302.826 106.196C304.788 108.047 305.543 110.844 304.778 113.431Z" fill="#D8E9FE"/>
<path d="M293.275 155.11C294.438 160.417 297.139 173.358 299.682 177.135C302.225 180.913 308.306 188.316 311.51 186.427C314.713 184.538 315.374 179.932 315.29 175.824C315.206 171.715 307.735 157.985 305.596 154.533C303.457 151.081 296.399 134.89 296.399 134.89C296.399 134.89 295.113 126.131 294.182 123.379C293.615 121.693 292.69 120.151 291.471 118.856C290.978 118.191 289.909 118.2 287.987 118.038C286.065 117.875 284.537 119.68 284.537 119.68L284.975 120.257C285.23 120.592 285.682 120.706 286.065 120.533L287.198 120.01L289.169 120.257L290.564 121.983C290.564 121.983 284.862 123.872 284.369 126.585C283.876 129.297 284.404 130.367 284.65 131.023C284.897 131.679 288.76 135.708 289.416 136.285C290.071 136.862 291.195 145.602 293.275 155.11Z" fill="#4C97FC"/>
<path d="M227.688 382.194L270.244 354.433V398.301L227.688 382.194Z" fill="#4C96FC"/>
<path d="M307.468 354.433H270.244V398.301L307.468 354.433Z" fill="#91BFFD"/>
<path d="M307.468 354.433L311.8 384.359L270.244 398.301L307.468 354.433Z" fill="#D8EAFE"/>
<path d="M311.84 431.098L311.8 384.359L270.244 398.302L311.84 431.098Z" fill="#4C96FC"/>
<path d="M311.84 431.098L311.8 384.359L354.401 396.773L311.84 431.098Z" fill="#91BFFD"/>
<path d="M366.978 354.433L311.8 384.359L354.401 396.773L366.978 354.433Z" fill="#136EFB"/>
<path d="M366.978 354.433L311.8 384.359L307.468 354.433H366.978Z" fill="#91BFFD"/>
<path d="M227.688 382.194L270.244 354.433H205.436L227.688 382.194Z" fill="#136EFB"/>
<path d="M274.611 20.6347L262.704 11.0522V41.2743L268.658 30.952L274.611 20.6347Z" fill="#429AFF"/>
<path d="M298.42 20.6346L310.327 11.0522L286.513 0L292.466 10.3173L298.42 20.6346Z" fill="#429AFF"/>
<path d="M304.373 30.952L310.327 41.2743V11.0522L298.42 20.6347L304.373 30.952Z" fill="#91C5FF"/>
<path d="M298.42 41.2744H286.513V52.3216L310.327 41.2744H298.42Z" fill="#91C5FF"/>
<path d="M274.611 41.2744H262.704L286.513 52.3216V41.2744H274.611Z" fill="#429AFF"/>
<path d="M292.466 10.3173L286.513 0L280.564 10.3173L274.611 20.6346L280.564 30.9519L286.513 41.2742L292.466 30.9519L298.42 20.6346L292.466 10.3173Z" fill="white"/>
<path d="M280.564 10.3173L286.513 0L262.704 11.0522L274.611 20.6346L280.564 10.3173Z" fill="#91C5FF"/>
<path d="M298.42 20.6348L292.466 30.9521L286.513 41.2743H298.42H310.327L304.373 30.9521L298.42 20.6348Z" fill="#429AFF"/>
<path d="M286.513 41.2743L280.564 30.9521L274.611 20.6348L268.658 30.9521L262.704 41.2743H274.611H286.513Z" fill="#0077FF"/>
<path d="M192.958 286.572C208.821 286.572 221.68 273.703 221.68 257.829C221.68 241.955 208.821 229.087 192.958 229.087C177.095 229.087 164.235 241.955 164.235 257.829C164.235 273.703 177.095 286.572 192.958 286.572Z" fill="#EBF4FF"/>
<path d="M230.384 289.886C240.071 289.886 247.924 282.027 247.924 272.334C247.924 262.64 240.071 254.781 230.384 254.781C220.697 254.781 212.844 262.64 212.844 272.334C212.844 282.027 220.697 289.886 230.384 289.886Z" fill="#EBF4FF"/>
<path d="M153.758 285.092C163.445 285.092 171.298 277.234 171.298 267.54C171.298 257.846 163.445 249.988 153.758 249.988C144.07 249.988 136.218 257.846 136.218 267.54C136.218 277.234 144.07 285.092 153.758 285.092Z" fill="#EBF4FF"/>
<path d="M131.92 289.881C136.762 289.881 140.688 285.953 140.688 281.107C140.688 276.262 136.762 272.333 131.92 272.333C127.078 272.333 123.152 276.262 123.152 281.107C123.152 285.953 127.078 289.881 131.92 289.881Z" fill="#EBF4FF"/>
<path d="M113 289.881H230.384C230.384 285.226 228.536 280.762 225.246 277.471C221.957 274.18 217.495 272.332 212.844 272.333H152.831C149.588 272.332 146.407 273.232 143.645 274.933L133.606 281.112L113 289.881Z" fill="#EBF4FF"/>
<path d="M243.597 467.184C255.159 467.184 264.532 457.804 264.532 446.233C264.532 434.663 255.159 425.283 243.597 425.283C232.034 425.283 222.661 434.663 222.661 446.233C222.661 457.804 232.034 467.184 243.597 467.184Z" fill="#EBF4FF"/>
<path d="M270.875 469.595C277.936 469.595 283.659 463.868 283.659 456.802C283.659 449.737 277.936 444.009 270.875 444.009C263.815 444.009 258.091 449.737 258.091 456.802C258.091 463.868 263.815 469.595 270.875 469.595Z" fill="#EBF4FF"/>
<path d="M215.022 466.109C222.083 466.109 227.806 460.381 227.806 453.316C227.806 446.25 222.083 440.522 215.022 440.522C207.962 440.522 202.238 446.25 202.238 453.316C202.238 460.381 207.962 466.109 215.022 466.109Z" fill="#EBF4FF"/>
<path d="M199.108 469.596C202.639 469.596 205.501 466.732 205.501 463.199C205.501 459.667 202.639 456.803 199.108 456.803C195.578 456.803 192.716 459.667 192.716 463.199C192.716 466.732 195.578 469.596 199.108 469.596Z" fill="#EBF4FF"/>
<path d="M185.319 469.596H270.875C270.875 462.53 265.152 456.803 258.091 456.803H214.347C211.983 456.802 209.666 457.459 207.654 458.701L200.336 463.199L185.319 469.596Z" fill="#EBF4FF"/>
</svg>
